<svg width="239" height="271" viewBox="0 0 239 271" fill="none" xmlns="http://www.w3.org/2000/svg">
<g id="head 2">
<g id="head/mono/Bun 2">
<path id="&#240;&#159;&#150;&#141; Ink" fill-rule="evenodd" clip-rule="evenodd" d="M149.004 0.0618711C146.308 -0.351991 144.272 1.35799 143.303 3.76818L143.252 3.89796C142.941 4.71805 142.595 5.51575 142.222 6.29999C135.475 2.91653 125.849 3.78592 121.579 10.638C118.532 15.5317 120.391 21.3396 121.539 26.5291L122.293 29.9484C120.836 30.8965 119.737 32.5945 119.788 34.3527L119.794 34.4881L120.101 39.2563C119.128 38.248 118.238 37.15 117.445 35.9804C116.897 34.9541 116.305 33.9458 115.669 32.9689C111.93 27.2192 103.535 32.216 106.621 38.3734C107.213 39.561 107.879 40.6858 108.594 41.7703C109.4 43.3702 110.062 45.0149 110.571 46.7044C109.111 47.3542 107.989 48.7972 107.871 50.9752C107.594 56.0616 110.207 60.3055 114.363 62.9719C115.586 63.7561 116.849 63.9085 117.993 63.6172C118.194 63.8951 118.396 64.1729 118.589 64.4552C116.932 65.831 115.437 67.3995 114.153 69.1383C110.286 68.5468 106.398 68.2689 102.509 68.26C97.7571 65.8803 92.0669 65.9296 86.9598 66.8214C83.672 67.395 80.5156 68.5109 77.2804 69.3131C73.8698 70.1556 70.4066 70.187 66.9565 70.7606C62.6078 71.4821 58.7939 73.5346 56.3959 76.8105C53.7613 76.8912 50.9907 77.9936 48.6936 79.4904C43.3454 82.9769 38.0278 86.5127 32.6927 90.0217C30.6452 91.3688 29.8796 93.5194 30.256 95.9181L30.2816 96.0716L30.4613 97.0665L30.0393 97.6788C28.4066 100.036 26.6301 102.505 25.5734 105.106C23.6182 107.988 21.8515 111.008 20.2865 114.123C18.1779 118.308 16.4376 122.745 15.2583 127.298C14.9646 128.45 14.6709 129.61 14.478 130.785C14.2018 132.443 14.6271 133.729 14.8594 135.32C15.1487 137.336 15.2539 139.38 15.5608 141.401C15.7668 142.741 16.8803 143.4 18.0464 143.436C17.608 146.846 17.2924 150.279 16.9899 153.685C16.5647 158.551 16.2754 163.432 16.0255 168.312C14.7366 170.225 12.102 171.74 10.1994 172.264C7.56474 172.986 4.80296 172.202 2.31296 171.283C0.74794 170.705 -0.536514 172.717 0.226257 174.062C2.62421 178.283 7.75327 178.265 11.6373 176.396C13.2812 175.608 14.7235 174.465 15.7931 172.977C15.7274 174.393 15.6572 175.809 15.5871 177.23L15.5218 178.517C14.732 193.544 13.027 209.088 15.7888 223.967C20.5715 249.739 41.4351 269.363 66.9214 270.887C80.2956 271.687 91.4328 267.648 96.971 265.396C102.509 263.143 100.357 258.55 96.512 259.863C89.889 262.125 77.7221 265.494 66.8338 264.039C41.171 260.61 19.4098 247.498 21.6455 191.024C21.9626 183.015 22.9387 175.003 23.1492 166.994C23.3508 159.165 23.2763 151.332 23.6139 143.507L23.7264 140.838C23.8582 137.718 23.9991 134.584 24.2276 131.461C24.5038 130.251 24.7317 129.023 25.0693 127.836C25.9855 124.605 27.1823 121.463 28.6684 118.465C28.9972 118.721 29.3654 118.904 29.7643 118.976C32.7935 119.532 35.6342 119.375 38.4706 118.084C39.7945 117.488 40.9606 116.695 42.0477 115.714C42.565 115.252 42.9113 114.804 43.1832 114.338C44.5553 114.36 45.9274 113.939 46.7866 112.931C47.7666 111.781 47.9296 110.594 47.5458 109.495L47.5056 109.386L47.602 109.35C48.7594 112.411 51.0652 115.104 53.5947 116.924C57.5927 119.81 62.5946 120.643 67.3905 120.719C72.6861 120.8 78.2711 119.966 83.4966 119.115C84.8775 118.891 86.2496 118.635 87.5955 118.29C87.6481 118.344 87.7007 118.407 87.7577 118.461C92.2423 122.848 98.5506 123.977 104.241 121.472C107.529 120.025 110.286 117.694 112.723 115.023C112.758 116.422 112.829 117.82 112.947 119.205L112.996 119.755C113.239 122.334 113.706 125.069 115.612 126.931C118.694 129.947 123.166 128.737 126.721 126.774C126.717 126.868 126.717 126.966 126.717 127.065C125.756 130.399 124.792 133.738 123.828 137.076L123.62 137.788C122.919 140.158 122.149 142.532 121.938 145.013C121.535 149.754 124.621 154.437 129.776 152.847C132.481 152.015 134.647 149.691 136.726 147.829L138.035 146.671C134.647 157.996 132.297 169.724 132.078 181.541C132.065 182.182 132.604 182.666 133.2 182.688C134.594 182.747 136.093 182.464 137.496 181.895C137.575 181.891 137.654 181.886 137.737 181.873C140.131 181.519 142.354 180.636 144.313 179.332C143.862 180.797 143.66 182.37 143.778 184.015C143.809 184.414 144.418 184.553 144.506 184.113C145.637 178.426 152.147 174.129 157.758 175.218C163.782 176.387 168.218 181.684 169.305 187.712C170.471 194.188 168.24 201.676 164.106 206.673C162.203 208.976 159.7 210.899 156.728 211.383C155.369 211.602 153.957 211.526 152.638 211.132C152.077 210.961 151.551 210.724 151.016 210.5C150.236 210.177 149.324 210.128 148.587 209.787C146.917 209.021 145.238 210.594 146.084 212.346C146.821 213.874 147.483 214.905 148.706 215.694C147.715 216.931 146.816 218.652 146.483 219.113C144.782 221.461 143.055 223.68 141.117 225.826C139.145 228.004 136.992 229.994 134.717 231.836L133.761 232.608C131.569 234.385 129.661 236.032 128.115 238.58C126.896 240.593 128.474 243.322 130.758 243.29C137.904 243.187 143.099 236.77 146.799 231.164C147.325 230.361 147.82 229.515 148.28 228.645C148.447 228.918 148.631 229.174 148.837 229.407L148.429 230.527C147.22 233.826 152.432 235.981 153.944 232.902C155.045 230.671 156.32 228.547 157.741 226.539C158.578 226.418 159.398 225.898 159.854 225.226C161.007 223.518 162.3 221.793 163.391 219.974C163.996 219.387 164.619 218.822 165.255 218.271C165.439 218.436 165.627 218.602 165.807 218.777C166.605 220.637 167.591 222.335 168.814 223.935L169.076 224.276C171.42 227.295 174.472 230.385 178.248 231.123C179.401 231.347 180.51 229.882 179.489 228.945C176.845 226.516 173.72 224.863 171.282 222.152C170.081 220.816 168.979 219.345 168.031 217.803L167.815 217.446C167.657 217.182 167.495 216.917 167.328 216.648C168.428 215.882 169.529 215.111 170.629 214.34C173.658 216.986 177.603 218.196 180.953 220.387L181.286 220.61C184.315 222.68 187.507 218.1 185.078 215.586C182.401 212.825 180.166 209.533 177.794 206.464C178.91 204.364 179.437 201.881 179.635 199.371C179.713 198.661 179.774 197.95 179.835 197.239C181.536 197.266 183.246 196.67 184.692 195.644L185.24 195.245C186.998 195.819 188.844 196.097 190.61 196.047C194.766 195.922 196.467 191.068 193.868 187.999C191.215 184.862 186.573 184.176 182.895 185.7C182.777 185.637 182.654 185.57 182.535 185.503C182.711 184.678 182.672 183.93 182.472 183.273L182.53 182.872C183.339 181.604 183.871 180.155 184.072 178.625C184.232 177.413 184.2 176.211 183.925 175.014C183.834 174.616 183.644 174.203 183.499 173.788C183.798 173.016 183.974 172.218 184.028 171.416C184.112 171.314 184.195 171.21 184.274 171.097C186.099 168.478 185.73 165.321 183.994 163.202C183.986 163.067 183.973 162.932 183.955 162.798C184.057 162.564 184.15 162.328 184.236 162.089C185.932 160.339 187.178 158.233 186.946 155.624C186.81 154.088 186.192 152.706 185.258 151.673C185.424 151.172 185.44 150.592 185.239 150.108C186.73 146.054 186.541 141.171 185.468 136.637C185.705 135.947 185.828 135.199 185.801 134.406C185.679 131.04 182.829 127.948 179.454 127.988C179.047 127.992 178.667 128.046 178.301 128.125L178.296 128.045C178.167 127.035 177.895 126.102 177.498 125.264C177.694 125.192 177.874 125.088 178.032 124.951C180.195 126.13 182.484 127.032 184.884 127.646C186.648 128.098 188.456 126.048 187.359 124.355C186.85 123.569 186.288 122.864 185.683 122.219C186.544 122.224 187.417 122.284 188.3 122.4C189.887 122.61 191.658 121.504 192.688 120.007C193.968 121.28 195.253 122.548 196.537 123.816C199.79 127.038 204.704 124.667 205.217 120.419C206.186 120.155 207.089 119.707 207.883 119.066C213.012 121.342 218.531 122.593 224.173 122.83C228.223 123 230.591 118.178 228.697 114.772C227.426 112.487 225.847 110.435 224.028 108.651C226.851 109.534 229.767 110.17 232.743 110.578C234.352 110.797 236.627 109.435 237.272 107.925C239.735 102.117 239.525 96.0626 236.689 90.4116C236.579 90.1875 236.456 89.9724 236.338 89.7573C236.044 89.0089 235.724 88.2695 235.378 87.5435C238.867 83.8239 239.17 78.2938 237.289 73.6645C238.043 72.4142 238.333 70.9085 237.82 69.5461C236.36 65.6249 234.256 62.0039 231.599 58.8938C231.853 58.3919 232.077 57.8586 232.265 57.285C233.76 52.6467 232.029 47.0494 228.535 43.8184C226.338 41.7838 223.813 40.5648 221.117 39.7851C219.982 37.7326 218.522 35.8818 216.821 34.3222C216.755 34.1744 216.69 34.0265 216.615 33.8786C213.967 28.7787 209.145 26.0451 203.977 25.4132C203.775 23.419 202.46 21.5144 200.549 20.8959C200.022 19.1706 199.238 17.5214 198.159 16.0247C196.463 13.6674 193.644 12.556 190.987 14.1021C189.532 14.9491 188.138 15.9216 186.832 16.9971C186.245 16.7158 185.58 16.5338 184.829 16.4757L184.64 16.4638L180.317 16.2398C178.507 15.4197 176.701 14.5592 174.89 13.7212C173.803 12.8025 172.589 12.0362 171.265 11.4671C169.765 10.8262 168.231 10.4632 166.692 10.3422C165.443 9.92545 164.185 9.55798 162.905 9.27117C159.898 8.59896 156.75 8.22252 153.629 8.25389C153.565 7.42803 153.533 6.59229 153.539 5.74668L153.545 5.32304C153.616 2.61179 151.498 0.447272 149.004 0.0618711ZM152.033 216.984C152.463 217.079 152.897 217.155 153.331 217.209C153.199 217.54 153.068 217.872 152.94 218.203C152.59 218.405 152.235 218.598 151.88 218.777C151.985 218.168 152.046 217.554 152.033 216.984ZM174.556 210.143L174.847 210.691C174.894 210.781 174.941 210.87 174.987 210.957C174.368 210.908 173.746 210.921 173.132 210.993L173.134 210.926C173.213 210.899 173.292 210.874 173.367 210.836C173.791 210.628 174.184 210.395 174.556 210.143ZM162.383 185.113C158.505 185.344 155.219 185.952 151.692 187.686L151.389 187.837C148.272 189.419 143.116 192.341 143.55 196.531C143.673 197.723 144.519 198.978 145.852 198.884C149.504 198.629 151.59 194.864 154.063 192.516C156.557 190.15 159.621 187.716 162.642 186.09C163.069 185.861 162.901 185.136 162.436 185.112L162.383 185.113ZM179.971 129.906C180.9 129.938 180.589 130.861 180.111 130.09C180.072 130.027 180.024 129.964 179.971 129.906ZM129.804 68.277C138.606 68.5136 147.465 73.8263 154.058 79.1964C159.795 83.8683 164.748 89.4252 169.134 95.4146C170.262 98.3974 171.231 101.443 172.049 104.51C172.589 106.536 172.926 108.584 173.378 110.627L173.518 111.254C173.873 111.931 174.136 112.66 174.328 113.414C173.529 114.233 172.492 114.82 171.351 115.098C170.983 115.187 170.677 115.382 170.436 115.639C169.517 114.071 168.714 112.417 168.246 110.663L168.229 110.581C166.463 107.624 164.545 104.759 162.488 101.992C156.816 94.3507 150.569 87.3866 143.059 81.5922C137.365 77.2004 130.999 73.7587 124.231 71.5224C125.888 70.156 127.769 69.0751 129.804 68.277Z" fill="#090426"/>
</g>
<g id="face/Smile">
<path id="&#240;&#159;&#150;&#141; Ink_2" fill-rule="evenodd" clip-rule="evenodd" d="M61.1775 234.793C64.1244 233.564 66.7538 231.514 68.6761 228.896C69.3445 227.985 69.5178 227.024 69.3776 226.145C69.2199 225.156 68.6477 224.26 67.8674 223.659C67.0847 223.056 66.1056 222.759 65.159 222.91C64.3364 223.042 63.5176 223.502 62.8696 224.457L62.7342 224.648C61.5914 226.229 60.1021 227.525 58.4052 228.361C56.7697 229.167 54.9405 229.543 53.0476 229.324C49.4424 228.908 46.9576 226.915 44.3164 224.208C43.989 223.867 43.6615 223.514 43.3323 223.156C43.1244 222.831 42.8359 222.623 42.5156 222.513C42.16 222.392 41.7577 222.399 41.3892 222.53C41.0338 222.657 40.7161 222.897 40.5031 223.217C40.3006 223.521 40.1858 223.896 40.223 224.328C40.4648 227.133 41.8993 229.636 43.937 231.602C46.2001 233.785 49.2001 235.295 52.0244 235.825C55.1359 236.409 58.3065 235.991 61.1775 234.793ZM50.5565 191.521C47.2462 193.578 42.2022 198.375 45.7634 203.474C49.9552 207.97 55.9906 202.815 58.9647 200.483C61.7225 198.676 64.8209 203.324 62.2623 205.434C40.7713 221.699 32.0497 192.059 48.8822 189.103C50.7355 188.777 51.4238 190.885 50.5565 191.521ZM89.0687 172.6C88.7029 167.959 81.7885 166.905 81.1007 171.498C80.4848 175.612 81.2098 179.391 83.0225 183.095C84.7546 186.633 89.1079 184.982 89.4372 181.76C89.8785 177.441 89.2962 175.487 89.0687 172.6ZM36.4351 170.546C35.4711 169.255 34.0793 168.374 32.4117 168.872C27.2015 170.428 28.7372 177.99 30.567 181.67C31.5612 183.669 34.775 184.176 36.2273 182.416C38.5946 179.546 39.7282 173.815 36.7188 170.988C36.6372 170.842 36.5465 170.694 36.4351 170.546ZM83.0959 152.292L82.2729 152.145C79.7269 151.695 76.5612 151.262 74.7601 153.355C73.8049 154.464 73.4761 156.527 74.7601 157.589C77.0187 159.458 79.5157 158.733 82.2222 158.892C84.4527 159.022 86.5964 159.4 88.7449 160.028C93.4584 161.405 97.299 163.919 101.325 166.679C101.853 167.042 102.392 166.351 102.14 165.846C99.8162 161.193 95.3127 157.371 90.8018 155.041C88.3942 153.797 85.7595 152.766 83.0959 152.292ZM41.1846 150.208L40.5547 150.34C33.6996 151.805 24.7933 154.731 21.5471 161.614C21.4234 162.587 21.5541 162.796 21.6604 162.932L21.6958 162.977C21.7833 163.094 21.8532 163.254 22.2659 163.387C22.3804 163.359 22.4961 163.329 22.613 163.298C24.101 162.899 25.2783 162.35 26.418 161.78L27.6538 161.158C29.0875 160.439 30.5339 159.747 32.0668 159.235C35.338 158.145 38.7028 157.376 42.1197 156.966C42.8603 156.877 43.5734 156.622 44.136 156.184C44.6701 155.768 45.078 155.193 45.264 154.428C45.5051 153.438 45.4358 152.688 44.9162 151.795C44.5255 151.124 43.9665 150.66 43.3246 150.393C42.6702 150.12 41.9252 150.056 41.1846 150.208Z" fill="#090426"/>
</g>
</g>
</svg>
