<svg width="205" height="240" viewBox="0 0 205 240" fill="none" xmlns="http://www.w3.org/2000/svg">
<g id="head1">
<g id="Group 1">
<g id="Medium 3 1" clip-path="url(#clip0)">
<g id="head/mono/Medium 3">
<path id="&#240;&#159;&#150;&#141; Ink" fill-rule="evenodd" clip-rule="evenodd" d="M150.377 59.9704C136.759 47.0251 116.632 40.7507 98.2296 41.848C88.2627 42.4425 78.6569 44.9821 69.6495 49.3453C66.8326 50.7098 64.0875 52.3069 61.5563 54.1876C59.8488 54.9979 58.1794 55.8747 56.5622 56.8281C48.4632 61.5992 42.2024 68.8259 38.1952 77.3982C36.2823 81.4898 34.7727 85.8043 33.9179 90.2498L33.7803 90.9816C33.344 93.2124 32.4818 96.1515 33.5727 98.239C34.2957 99.623 35.8109 100.495 37.2453 100.378C36.9338 101.661 36.5608 102.943 36.3223 104.234L35.6728 107.754C35.5652 108.34 35.4583 108.927 35.3532 109.514C34.7264 113.01 34.1495 116.502 33.688 120.025C32.7228 127.362 31.8498 134.714 31.0807 142.078C30.5294 147.345 30.0129 152.617 29.5111 157.887L29.2116 161.049C28.6963 166.493 28.2925 171.984 28.6429 177.451C29.1701 185.652 31.6506 193.135 36.465 199.222C36.0062 200.344 35.8516 201.607 35.5063 203.002C35.0283 204.932 34.4057 206.822 33.743 208.696C33.4331 209.432 33.1223 210.169 32.8151 210.908L32.0071 212.863L31.3766 214.146C30.6935 215.541 30.0328 216.956 29.6131 218.4C26.8927 219.877 24.671 222.287 24.5622 225.588C24.4661 228.572 25.989 231.732 28.5617 233.253C31.1003 234.756 33.7138 234.164 36.1447 233.017C38.264 233.644 40.5326 233.724 42.632 233.054C44.2483 234.541 46.3331 235.569 48.644 235.846C52.1279 236.267 55.4355 235.275 58.6315 233.971L58.8543 233.879C58.9543 233.84 59.0542 233.797 59.1504 233.754C62.8269 233.574 66.488 232.096 69.0957 229.476C69.9453 228.627 70.6798 227.657 71.272 226.57C73.4221 222.616 73.7563 217.763 71.6412 213.841C72.095 213.86 72.5526 213.879 73.0064 213.891C79.0575 214.067 85.1192 213.753 91.1548 213.348L92.5778 213.25C96.4834 212.964 102.243 212.291 102.353 207.368C102.369 206.739 101.73 206.265 101.145 206.434C98.9264 207.071 96.7459 208.072 94.4462 208.432C91.4389 208.905 88.3242 208.956 85.2857 209.128L84.412 209.178C78.2852 209.518 71.9387 209.726 65.9111 208.491C61.412 207.572 56.7238 205.897 52.6012 203.825C48.644 201.831 45.0482 199.222 42.1486 195.816C35.7609 188.323 34.9148 177.752 35.2263 168.273C35.6032 156.951 36.9111 145.645 37.6491 134.339L37.9831 129.26C38.2585 125.024 38.51 120.783 38.6144 116.545C38.6913 113.452 38.6417 110.351 38.6263 107.257C38.6186 105.712 38.6375 104.16 38.6028 102.615C38.5836 101.747 38.4836 100.898 38.4106 100.049C38.749 99.8698 39.0643 99.6191 39.3489 99.2871C39.572 99.0251 39.745 98.7474 39.8642 98.4658C41.2987 98.0392 41.964 97.4721 42.8946 96.1858C43.6792 95.1026 44.5675 94.1014 45.5174 93.1628C47.5402 91.1684 49.8515 89.5376 52.2939 88.1176C57.3429 85.181 62.873 83.2178 68.4493 81.6066C76.9871 79.1428 85.8549 77.8757 94.5193 75.8965C96.9074 79.2832 99.4379 82.5686 102.084 85.7481C110.341 95.6657 119.809 104.508 129.954 112.392C132.019 113.999 134.111 115.583 136.234 117.12C139.03 121.455 141.856 125.77 144.724 130.056L145.955 131.891L145.975 131.926C146.144 132.188 146.306 132.45 146.467 132.712C146.809 133.268 147.194 133.803 147.601 134.323C147.867 134.718 148.136 135.113 148.409 135.508C147.886 135.793 147.409 136.115 147.036 136.47C146.275 137.201 146.402 138.363 147.036 139.106C149.082 141.507 152.32 138.379 154.674 137.546C157.223 138.335 159.35 141.421 160.408 143.779C161.93 147.178 162.542 151.276 161.854 154.956C161.223 158.319 159.523 161.225 156.696 163.048C156.596 163.11 156.489 163.177 156.385 163.235C156.381 163.243 156.381 163.243 156.377 163.239C156.281 163.302 156.181 163.361 156.081 163.415C154.754 164.158 153.297 164.596 151.786 164.702C150.921 164.765 150.016 164.717 149.151 164.823C148.263 164.928 147.532 165.343 146.678 165.562C145.736 165.808 145.129 167.095 145.721 167.959C146.013 168.386 146.29 168.793 146.587 169.156C145.613 170.322 144.768 171.608 144.002 172.832C142.956 174.51 142.029 176.29 141.183 178.104C140.402 179.148 139.656 180.212 138.933 181.299C134.838 187.47 131.703 194.345 129.777 201.529C127.869 208.635 126.677 216.617 128.442 223.872C130.069 230.543 134.818 236.069 141.848 236.425C143.315 236.499 144.758 236.332 146.115 235.953C149.095 237.825 152.789 238.767 156.094 238.877C158.769 238.966 161.696 238.393 163.88 236.749C166.471 237.896 169.281 238.546 171.725 238.694C174.46 238.86 177.322 238.102 179.551 236.601C181.672 238.449 183.961 240.009 186.562 241.079C191.035 242.917 196.357 242.69 200.453 239.941C204.556 237.188 206.644 232.245 205.391 227.34C204.237 222.82 200.61 219.503 197.203 216.648L196.53 216.087C193.16 213.29 189.756 210.582 187.593 206.641C185.297 202.46 184.459 197.603 184.232 192.871C183.739 182.453 185.824 172.129 186.458 161.765C187.112 151.061 186.747 140.326 185.312 129.701C182.524 109.06 175.187 88.8258 161.911 72.7366C159.991 70.4086 157.935 68.1896 155.768 66.0864C154.112 63.8839 152.322 61.8194 150.377 59.9704ZM-26.2085 177.823C-26.2815 177.826 -26.3508 177.83 -26.4161 177.858C-26.46 177.876 -26.4969 177.907 -26.531 177.939L-26.8545 178.268C-26.9699 178.386 -26.9622 178.566 -26.8545 178.683C-26.7601 178.79 -26.5895 178.793 -26.4783 178.71L-26.4469 178.683L-26.1119 178.342C-26.0752 178.302 -26.0439 178.258 -26.0277 178.202C-26.0123 178.147 -26.0123 178.085 -26.0085 178.026C-26.0046 177.92 -26.1046 177.823 -26.2085 177.823ZM154.224 145.872C151.14 144.921 147.44 147.182 145.602 149.567C144.679 150.764 144.417 152.403 145.602 153.58C146.609 154.581 148.578 154.764 149.551 153.58C150.655 152.231 151.555 150.361 153.132 149.497C154.843 148.559 157.135 148.793 157.539 151.081C157.608 151.468 158.154 151.339 158.177 150.991C158.327 148.676 156.331 146.517 154.224 145.872Z" fill="#090426"/>
</g>
</g>
</g>
<g id="Loving Grin 1 1">
<g id="face/Loving Grin 1">
<path id="&#240;&#159;&#150;&#141; Ink_2" fill-rule="evenodd" clip-rule="evenodd" d="M109.354 178.134C109.31 173.546 105.279 172.755 101.45 173.366C94.968 174.401 88.4619 175.129 81.8921 175.26L80.7599 175.279C80.5775 175.017 80.2727 174.818 79.859 174.774C76.2172 174.386 72.4968 174.449 68.8351 174.342C65.6408 174.25 62.3582 173.935 59.1642 174.182L58.91 174.204C55.0063 174.577 50.8869 176.542 51.3583 181.061C51.7919 185.245 55.847 188.949 59.0853 191.274C59.74 191.74 60.4095 192.177 61.0985 192.575C61.3146 192.847 61.6299 193.036 61.9943 193.075C65.1831 194.774 68.7017 195.779 72.344 196.114C80.0659 196.822 89.0428 196.055 96.4595 192.755C98.8708 191.682 101.12 190.342 103.108 188.696C106.174 186.158 109.388 182.308 109.354 178.134ZM78.929 187.23C82.0246 187.138 85.1152 187.565 88.0634 188.507C90.0614 189.143 91.8826 190.366 93.797 191.216C87.3449 193.643 79.8493 194.172 73.2301 193.73C70.3261 193.536 67.5109 192.876 64.8876 191.74C65.2963 191.449 65.71 191.153 66.1431 190.895C67.4518 190.114 68.8204 189.449 70.2476 188.92C73.0279 187.891 75.9614 187.323 78.929 187.23ZM77.8915 147.112C78.7267 146.521 78.0638 144.562 76.2792 144.865C60.0701 147.612 68.4686 175.151 89.1637 160.039C91.6276 158.078 88.6439 153.76 85.9883 155.439L85.0454 156.156C81.9797 158.474 76.9088 161.978 73.2758 158.218C69.8465 153.48 74.7037 149.023 77.8915 147.112ZM66.9182 126.269C63.4725 123.369 59.1509 125.506 56.6142 128.443L56.167 128.968C55.6596 129.567 55.0977 130.265 54.76 131.011C51.9489 128.65 48.1369 126.989 44.4892 128.067C40.9516 129.117 38.9342 132.448 39.5416 136.025C40.2309 140.091 43.3507 142.825 46.7027 144.939L47.6533 145.534C51.6815 148.067 55.4509 150.619 58.7661 154.1C59.3069 154.666 60.4758 154.591 60.8304 153.838L61.1159 153.232L61.4045 152.626C63.7563 147.679 66.2761 142.766 68.345 137.703C69.8774 133.951 70.3751 129.175 66.9182 126.269ZM106.196 128.895L105.671 128.297C103.147 125.399 98.8702 123.458 95.4968 126.269C91.9048 129.263 92.6098 134.213 94.2097 138.032C96.1364 142.637 98.3866 147.141 100.549 151.658L101.01 152.626C101.205 153.03 101.395 153.434 101.584 153.838C101.939 154.591 103.112 154.666 103.649 154.1C106.861 150.727 110.495 148.232 114.377 145.779L115.549 145.044C118.956 142.912 122.177 140.159 122.878 136.025C123.477 132.456 121.472 129.104 117.93 128.067C114.274 126.998 110.471 128.646 107.655 131.011C107.319 130.246 106.742 129.526 106.196 128.895ZM101.577 108.105C100.344 109.683 101.66 112.264 103.461 112.672C105.691 113.178 107.943 112.87 110.132 113.498C112.138 114.073 114.06 115.225 115.779 116.373C117.74 117.682 119.546 119.144 121.206 120.809C122.193 121.799 123.436 124.146 124.959 124.19C126.472 124.234 124.441 119.565 124.273 119.162C123.079 116.286 121.403 113.641 119.306 111.323C115.169 106.75 106.406 101.925 101.577 108.105ZM55.3723 106.841L54.3394 107.124C51.7837 107.825 49.0554 108.686 46.8628 110.197L46.6906 110.317L46.4252 110.508C43.6725 112.533 39.7792 116.571 41.7287 120.095C41.8633 120.338 42.1487 120.362 42.3783 120.263C44.972 119.142 46.8949 116.905 49.6536 115.969L50.1625 115.798C52.8343 114.91 56.1397 113.977 59.0155 114.062C61.0375 114.71 63.7684 114.173 64.2948 111.745L64.3185 111.626L64.3641 111.375C64.6672 109.716 64.2164 107.601 62.4775 106.801C60.0951 105.706 57.7707 106.194 55.3723 106.841Z" fill="#090426"/>
</g>
</g>
</g>
<defs>
<clipPath id="clip0">
<rect width="181.901" height="221.739" fill="white" transform="matrix(-1 0 0 1 189.601 18.2609)"/>
</clipPath>
</defs>
</svg>
