<svg width="473" height="567" viewBox="0 0 473 567" fill="none" xmlns="http://www.w3.org/2000/svg">
<g id="malehead2">
<g id="Twists 2 1" clip-path="url(#clip0)">
<g id="head/mono/Twists 2">
<path id="&#240;&#159;&#150;&#141; Ink" fill-rule="evenodd" clip-rule="evenodd" d="M233.571 13.9589C236.375 10.7809 240.695 11.8709 243.317 14.3839C245.024 14.8869 246.678 15.6349 248.24 16.6249C251.77 16.1719 255.471 16.1719 258.933 16.2989C259.773 15.8279 260.673 15.4089 261.653 15.0489C268.653 12.4899 274.852 13.7899 279.965 17.2159C282.428 14.8859 285.535 13.4239 289.507 13.6449C293.052 13.8429 295.578 15.5109 297.743 17.7079C299.902 14.5949 303.392 12.3739 307.74 12.0649C313.817 11.6329 319.659 14.0699 324.501 17.8429C327.322 14.6069 331.168 12.7469 335.454 12.7289C338.274 12.2169 341.25 12.4189 343.939 13.2309C347.843 14.4099 351.271 16.6189 354.001 19.4859C358.32 15.3499 363.607 12.3739 369.703 12.8079C377.593 13.3779 384.133 19.1789 387.173 26.3189C392.513 28.4579 397.443 31.5089 401.563 35.8589C401.783 36.0879 401.993 36.3279 402.213 36.5689C404.433 37.3879 406.523 38.5489 408.363 40.0779C414.193 44.9289 415.493 51.9489 413.563 58.8279C413.833 59.9289 414.063 61.0489 414.273 62.1679C419.733 62.9979 424.693 66.1489 427.513 71.2789C431.373 78.3189 430.613 87.5979 426.433 94.3189C424.636 97.2099 422.355 99.6459 419.793 101.776C422.69 108.356 421.3 116.208 416.629 121.53C415.491 123.365 414.094 125.021 412.522 126.52C414.257 133.323 411.171 140.342 405.011 143.977L404.484 145.296C404.395 145.515 404.305 145.733 404.213 145.949C404.145 146.229 404.061 146.5 403.978 146.773C403.831 149.187 403.036 151.556 401.458 153.788C398.227 158.362 394.223 161.345 392.099 166.685L391.887 167.246C390.974 169.773 388.026 171.556 385.514 170.776C399.461 199.417 406.773 231.286 411.793 262.518C414.296 278.099 416.228 293.734 417.794 309.429L419.331 325.058C420.682 338.951 421.885 352.889 421.893 366.828C421.913 398.359 412.893 428.688 393.533 453.779C375.223 477.498 349.313 494.688 320.043 501.458C289.823 508.438 254.373 505.688 227.273 489.708C219.283 485.009 226.283 473.708 234.413 477.489C249.803 484.649 265.443 489.969 282.503 491.159C299.133 492.328 315.803 490.248 331.573 484.808C357.663 475.799 379.863 456.929 394.133 433.429C401.163 421.848 406.253 409.279 408.963 395.998C412.336 379.445 411.828 362.336 410.588 345.571L410.503 344.429C408.053 312.128 404.823 279.628 399.603 247.649C394.989 219.37 387.894 191.664 378.683 164.571C375.075 161.395 371.039 158.767 366.72 156.771C335.093 155.45 303.409 155.836 271.823 158.018C244.885 159.891 218.077 163.06 191.472 167.678L188.623 168.179C182.733 169.228 176.193 169.828 170.643 172.199C165.883 174.239 163.953 178.159 162.753 182.978C159.733 195.168 159.273 208.509 158.763 221.009C158.263 233.228 159.393 245.549 158.413 257.728C157.583 267.918 154.973 278.348 147.423 285.719C143.473 289.578 138.613 291.688 134.053 294.618C131.103 296.509 129.853 298.458 130.233 301.958C131.053 309.618 137.223 319.268 130.293 325.828C129.073 326.978 126.963 327.128 125.763 325.828C122.903 322.719 118.953 320.348 115.563 317.838C114.143 316.799 115.323 314.779 116.933 315.498C119.053 316.449 121.213 317.569 123.423 318.549C118.543 314.529 111.603 312.558 105.823 311.388C102.913 310.808 99.8525 310.638 96.8225 310.909C94.5826 311.978 92.2925 312.969 90.0025 313.938C87.0925 315.159 84.1525 316.268 81.1925 317.319C70.9225 325.688 66.0225 339.299 68.1625 352.609C69.3325 359.958 72.7225 367.949 79.1125 372.239C86.6825 377.319 96.8225 375.138 105.003 378.909C112.663 382.438 117.323 389.569 120.813 396.949L122.268 400.021C125.507 406.824 128.836 413.447 133.263 419.638C138.383 426.808 144.653 433.248 151.493 438.779C154.811 441.456 158.348 443.863 162.003 446.056L163.003 446.649C166.703 448.819 169.353 450.888 169.603 455.478C169.683 457.078 168.673 458.538 167.373 459.368C161.773 462.918 156.203 458.478 151.543 455.378C146.513 452.038 141.703 448.279 137.253 444.179C128.793 436.399 121.473 427.159 115.843 417.128C111.553 409.489 109.113 398.739 102.333 392.819C98.1926 389.208 92.3425 389.179 87.1725 388.518C82.3625 387.899 77.8125 386.899 73.5325 384.529C56.1225 374.859 51.2025 351.449 55.3325 333.359C56.0325 330.308 57.0125 327.338 58.2225 324.478C51.7425 325.558 44.4625 318.859 47.0925 312.098C47.2925 311.588 47.5225 311.109 47.7425 310.618C43.4725 307.808 40.1025 303.549 38.5025 297.978C37.6825 295.098 37.5625 292.188 37.9925 289.378C35.9225 287.989 34.2125 286.078 33.1125 283.728C29.6725 282.138 26.6225 279.759 24.8025 276.359C22.2825 271.668 22.6025 267.348 24.5225 263.458C24.2525 262.969 23.9925 262.469 23.7425 261.958C16.6925 257.489 11.7725 249.788 12.3325 241.248C12.5125 238.418 13.2125 235.868 14.2925 233.569C14.2025 233.279 14.1125 232.978 14.0325 232.688C8.13255 229.688 3.25255 224.759 1.51255 218.179C-0.227455 211.558 1.82255 204.958 5.92255 199.878C-0.0774546 195.489 -3.68745 189.359 -1.49745 180.088C-0.607455 176.319 1.18255 172.888 3.60255 169.998C3.59255 169.909 3.57255 169.819 3.55255 169.728L2.9912 169.293C-4.41585 163.448 -8.6738 155.999 -4.12745 146.838C-2.08745 142.719 0.822545 139.848 4.24255 137.958L4.41255 137.418C1.96255 132.168 1.13254 126.338 2.82255 120.208C4.20255 115.159 7.47255 111.138 11.6525 108.469C11.3725 106.208 11.4125 103.799 11.8625 101.188C12.6125 96.7789 14.8025 92.9289 18.0025 90.1989C18.1225 89.6179 18.2725 89.0489 18.4425 88.4779C19.5225 84.9889 21.5425 81.1989 23.8825 78.3879C25.8125 76.0579 27.9725 75.2079 30.6125 75.1179C30.4525 72.9689 30.5625 70.7879 31.0025 68.5779C32.3525 61.7589 36.6925 55.3479 43.1225 52.4379C45.7625 51.2479 48.5425 50.8989 51.2225 51.1879C53.5025 46.3879 57.9525 42.9089 63.4225 42.1589C65.5525 41.8589 67.5325 41.8779 69.3525 42.1489C70.3825 41.6679 71.4525 41.2389 72.5725 40.8479C73.3125 40.5879 74.0625 40.3479 74.8125 40.1089C77.3425 36.9689 80.6725 34.4579 84.5625 32.9489C89.0525 31.1989 93.6225 31.3779 97.6725 32.8479L98.9625 32.5779C100.983 29.0779 104.203 26.3679 109.153 25.1379C114.773 23.7479 120.543 25.6879 124.963 29.2189C124.983 29.2189 125.003 29.2189 125.033 29.2079C127.343 24.0379 131.293 20.4379 137.923 20.6879C142.053 20.8479 145.783 22.8989 148.663 25.8189C150.263 25.6179 151.863 25.4379 153.473 25.2589C155.173 23.2679 157.063 21.4089 159.153 19.7389C162.573 16.9979 167.023 17.2189 169.543 21.0779C170.093 21.9179 170.603 22.7679 171.113 23.6179L173.423 23.4579C176.143 19.7879 179.853 17.3079 184.933 17.1089C189.593 16.9179 192.913 19.1989 195.443 22.3879C197.503 22.3379 199.573 22.2989 201.643 22.2679C204.053 19.4779 206.893 17.0179 210.133 14.9779C212.613 13.4179 216.273 13.9489 218.283 16.0289C219.641 17.4429 220.905 18.9189 222.08 20.4469C225.109 17.0509 229.2 14.8139 233.571 13.9589ZM86.3925 331.508C91.0625 328.848 97.3426 331.728 101.863 333.988C107.373 336.738 112.843 340.888 116.213 346.088C120.803 353.168 110.013 358.888 105.183 352.538C102.213 348.628 99.8425 344.688 96.2425 341.268C92.9525 338.128 88.1825 336.028 86.2925 331.888C86.2225 331.748 86.2425 331.588 86.3925 331.508ZM89.6732 159.658L89.7605 159.408C91.0885 155.775 85.2925 154.209 83.9755 157.812C81.9795 163.273 84.2805 169.21 89.6745 171.568C91.1695 172.222 92.8775 171.995 93.7785 170.492C94.5356 169.227 94.1845 167.035 92.7025 166.388C89.6676 165.061 88.651 162.718 89.6732 159.658ZM39.7415 149.499C42.6425 146.939 38.3855 142.708 35.4985 145.257C32.8045 147.635 30.8065 150.865 31.3255 154.58C31.8545 158.366 34.7095 161.039 37.8345 162.928C41.1465 164.931 44.1655 159.745 40.8625 157.747L40.4915 157.52C39.105 156.659 37.4822 155.475 37.2475 153.781C36.9985 151.981 38.5215 150.576 39.7415 149.499ZM56.209 104.327L56.4145 104.176C59.5305 101.952 56.5375 96.7459 53.3855 98.9949C50.4955 101.058 48.1775 103.738 47.9335 107.434C47.6965 111.026 49.5245 114.14 51.9145 116.667C54.5735 119.478 58.8115 115.23 56.1575 112.425C53.5716 109.691 53.0661 106.708 56.209 104.327Z" fill="#090426"/>
</g>
<g id="Calm 1">
<g id="face/Calm">
<path id="&#240;&#159;&#150;&#141; Ink_2" fill-rule="evenodd" clip-rule="evenodd" d="M312.042 421.159C304.675 423.293 296.768 423.483 289.259 421.28C282.448 419.281 275.455 414.882 270.442 409.062C265.989 403.892 263.105 397.608 263.219 390.901C263.232 390.135 263.506 389.496 263.927 388.999C264.38 388.465 265.014 388.098 265.693 387.939C266.391 387.775 267.128 387.833 267.757 388.119C268.326 388.377 268.813 388.816 269.118 389.457C269.888 390.469 270.655 391.466 271.426 392.435C277.62 400.084 283.618 405.8 292.932 407.85C297.985 408.962 303.032 408.469 307.663 406.771C312.62 404.954 317.102 401.76 320.613 397.672C322.2 395.824 324.074 395.07 325.905 395.057C327.982 395.043 330.034 396.007 331.579 397.549C333.099 399.065 334.116 401.124 334.209 403.279C334.29 405.17 333.673 407.145 332.032 408.907C326.626 414.711 319.621 418.964 312.042 421.159ZM311.814 325.367C319.366 329.957 330.872 340.66 322.748 352.04C313.186 362.073 299.418 350.569 292.634 345.366C286.343 341.334 279.275 351.705 285.112 356.413C334.136 392.708 354.031 326.567 315.634 319.97C311.406 319.244 309.836 323.947 311.814 325.367ZM241.175 305.17C238.748 303.618 235.893 303.085 232.729 304.525C230.256 305.649 225.919 309.398 222.901 314.325C220.836 317.697 219.372 321.652 219.677 325.771C219.748 326.728 219.394 327.433 218.837 327.955C218.396 328.367 217.76 328.669 217.013 328.764C216.379 328.844 215.669 328.772 215.091 328.592C213.993 328.249 213.412 327.537 213.193 326.955C211.08 321.343 211.99 315.08 214.358 309.43C217.555 301.805 223.359 295.418 227.162 293.359C233.67 289.834 241.347 289.671 247.864 293.262C253.411 296.319 256.88 301.254 260.33 306.283C261.063 307.353 261.791 308.414 262.544 309.457C264.051 311.546 264.201 313.619 263.617 315.396C262.971 317.364 261.321 319.026 259.259 319.895C257.353 320.699 255.141 320.812 253.183 319.986C251.529 319.289 250.012 317.929 249.051 315.622C247.434 311.736 244.739 307.45 241.175 305.17ZM364.441 313.814C362.779 314.681 361.478 314.942 359.634 314.389C358.615 314.083 357.607 313.496 356.818 312.707C356.036 311.925 355.472 310.953 355.252 309.874C354.713 307.212 353.256 304.719 351.181 303.095C349.406 301.706 347.167 300.97 344.683 301.385C342.002 301.833 339.449 303.552 337.69 305.579C337.102 306.257 336.641 307.027 336.178 307.792C335.311 309.223 334.469 310.553 333.274 311.603C332.821 312.003 332.138 312.28 331.477 312.28C331.208 312.28 330.935 312.236 330.676 312.155C328.008 309.478 327.495 307.446 327.581 305.432C327.671 303.319 328.504 301.18 329.85 299.184C333.007 294.502 339.003 290.663 343.048 289.793C348.589 288.603 354.091 290.032 358.503 293.127C363.042 296.311 366.405 301.254 367.454 306.825C367.706 308.167 367.599 309.615 367.088 310.871C366.589 312.098 365.719 313.149 364.441 313.814ZM253.394 255.253C250.069 258.492 246.134 258.994 242.153 259.44C239.941 259.691 238.175 259.892 236.437 260.285C231.661 261.363 226.939 262.987 222.632 265.325C218.129 267.77 213.222 270.718 209.692 274.495C208.853 275.394 208.062 276.337 207.269 277.283C206.547 278.144 205.851 278.974 205.117 279.774C204.274 280.693 203.474 281.656 202.679 282.617C202.187 283.427 202.09 283.627 201.99 283.834C201.841 284.146 201.668 284.495 201.47 284.87C201.198 285.382 200.881 285.944 200.548 286.453C199.994 287.383 199.697 287.639 199.44 287.753C199.014 287.943 198.61 288.037 198.218 287.986C197.851 287.939 197.504 287.762 197.162 287.473C195.455 286.031 194.952 283.664 195.004 281.151C195.082 277.339 196.488 273.117 197.785 270.522C200.799 264.492 204.979 258.224 210.006 253.724C215.742 248.587 222.018 244.698 229.226 242.018C233.705 240.352 238.891 238.823 243.771 239.016C247.284 239.155 250.637 240.2 253.407 242.807C255.107 244.408 255.923 246.685 255.923 248.96C255.923 251.28 255.076 253.615 253.394 255.253ZM371.203 284.918C370.992 285.264 370.699 285.503 370.373 285.646C370.032 285.797 369.651 285.84 369.285 285.779C368.921 285.717 368.575 285.552 368.3 285.3C368.037 285.058 367.837 284.737 367.747 284.345C365.54 274.649 361.253 267.436 352.104 262.784C347.604 260.495 342.429 259.041 337.53 257.882C336.106 257.545 334.602 257.327 333.087 257.106C328.339 256.413 323.557 255.619 320.462 251.781C318.597 249.469 317.814 246.513 318.256 243.809C318.673 241.263 320.161 238.929 322.865 237.53C329.597 234.049 337.964 237.465 344.763 240.374C345.267 240.59 345.762 240.802 346.246 241.007C352.895 243.813 358.959 247.517 363.944 252.815C367.899 257.018 371.563 263.231 373.039 269.623C374.267 274.941 373.978 280.369 371.203 284.918Z" fill="#090426"/>
</g>
</g>
</g>
</g>
<defs>
<clipPath id="clip0">
<rect width="473" height="567" fill="white"/>
</clipPath>
</defs>
</svg>
