<svg width="473" height="567" viewBox="0 0 473 567" fill="none" xmlns="http://www.w3.org/2000/svg">
<g id="malehead1">
<g id="malehead1_2" clip-path="url(#clip0)">
<g id="head/mono/Pomp">
<path id="&#240;&#159;&#150;&#141; Ink" fill-rule="evenodd" clip-rule="evenodd" d="M148.066 33.5074C209.396 5.68736 278.957 -4.86265 345.857 2.05735C378.878 5.46756 411.463 12.7839 442.474 24.6686L445.193 25.719C452.848 28.6654 461.1 31.5899 466.917 37.5874C473.688 44.5574 475.587 55.0974 470.747 63.7074C466.987 70.3974 460.227 75.1964 453.017 77.7574C455.557 79.8374 457.967 82.1574 460.227 84.7474C464.037 89.0874 464.327 95.2764 460.227 99.5574C452.327 107.807 442.077 113.776 431.037 116.637C432.277 122.627 431.607 129.257 428.947 135.227C421.314 152.364 399.813 154.407 383.267 153.389L382.767 153.357L381.847 163.887C381.357 169.497 377.997 173.847 372.297 174.707C372.097 174.737 371.896 174.757 371.697 174.776C380.717 207.397 386.167 241.026 391.197 274.457C393.825 291.908 396.178 309.4 398.43 326.903L399.177 332.737C401.577 351.607 404.577 370.667 405.617 389.677C406.547 406.927 403.257 423.397 392.627 437.317C383.087 449.797 370.077 459.147 356.087 466.087C324.477 481.776 291.207 493.457 256.247 498.877L253.916 499.236C240.421 501.296 226.517 503.032 213.167 499.297C201.438 496.017 189.137 487.557 191.787 473.967C192.677 469.377 199.097 469.177 201.297 472.727L201.805 473.541C204.443 477.727 207.334 481.617 211.938 483.776C217.327 486.317 223.577 487.026 229.467 487.097C245.917 487.287 263.047 483.187 278.887 479.077C308.467 471.398 338.847 458.877 363.077 439.907C373.387 431.847 381.667 421.767 384.587 408.797C388.197 392.807 384.877 375.327 383.237 359.257C379.862 326.098 375.845 293 371.607 259.939L370.757 253.327C367.188 225.687 363.438 198.037 361.657 170.237C360.917 169.227 360.417 168.077 360.217 166.817L359.938 165.007C359.697 163.457 359.657 162.037 359.827 160.727C359.837 155.707 359.977 150.717 360.267 145.696C360.316 144.797 360.357 143.897 360.387 143.007C355.167 144.157 349.907 145.087 344.627 145.877C307.507 151.467 269.807 152.867 232.387 150.087C213.717 148.696 195.188 146.307 176.717 143.317C167.316 141.797 157.947 140.117 148.607 138.237C141.857 136.887 135.247 135.057 128.607 133.337C121.757 143.307 118.057 155.577 118.777 167.627C119.587 181.377 128.747 193.847 126.177 207.897C123.765 221.046 112.5 225.123 101.378 228.38L96.6473 229.747C93.0082 230.809 90.3657 231.834 89.7069 236.207C88.577 243.717 89.9669 252.167 90.2569 259.717C90.6069 268.647 91.0659 277.577 91.2769 286.507C91.3869 291.127 91.5659 295.767 91.5569 300.387C91.5469 303.667 91.0569 305.907 89.7869 308.026C90.7669 309.257 91.6459 310.587 92.4269 311.997C92.6769 312.457 92.0569 312.946 91.6879 312.567C90.6969 311.537 89.6459 310.607 88.5369 309.776C87.9769 310.467 87.3269 311.167 86.5659 311.917L86.5069 311.837C84.1269 314.207 80.3469 314.437 77.3959 311.917L76.6216 311.246C74.4617 309.353 72.9776 307.776 72.3769 304.647C72.347 304.487 72.3159 304.327 72.2969 304.167C66.8069 303.977 61.2269 305.276 56.2869 308.007C48.4569 312.337 42.9469 318.507 39.6879 326.127C40.9869 327.647 42.507 329.007 44.277 330.147C44.527 330.317 44.3069 330.687 44.0369 330.557C42.2269 329.707 40.6069 328.657 39.1569 327.427C37.9869 330.427 37.1669 333.647 36.6669 337.057C34.9069 349.097 38.0469 363.807 48.9269 370.667C53.6369 373.637 59.017 375.247 64.597 375.267C67.316 375.276 69.667 374.817 72.3069 374.167C74.097 373.727 75.8769 373.087 77.7469 373.087C79.3469 373.087 80.8269 373.487 82.1969 374.287L81.817 374.321C80.8936 374.407 81.0712 374.446 82.3569 374.446C86.3569 374.617 88.6459 378.677 86.8069 382.207L86.5657 382.753C86.5148 382.863 86.4718 382.954 86.4379 383.026L86.2926 383.963C86.2781 384.052 86.2629 384.143 86.2469 384.237L86.1914 384.427C86.1814 384.457 86.1703 384.487 86.1569 384.517L92.156 393.666C99.5112 404.857 107.031 416.005 115.587 426.227C121.587 433.397 127.947 440.427 134.667 446.937C140.707 452.787 147.947 455.607 154.787 460.207C158.438 462.647 159.507 467.757 156.188 471.047C146.447 480.717 132.657 473.037 124.667 465.177C117.107 457.727 110.577 448.767 104.947 439.797C94.9569 423.847 87.007 406.887 83.5269 388.477C82.077 389.807 80.2269 390.637 78.3569 391.287C74.6069 392.587 70.4769 393.127 66.5169 393.267C58.9269 393.517 51.3269 391.677 44.4969 388.417C16.7069 375.167 12.6269 335.487 29.6169 312.087C27.326 305.444 26.0465 298.235 24.6564 292.088L24.024 289.34C16.9993 258.647 12.2811 226.333 24.7369 196.257C26.3369 192.377 28.1369 188.597 30.2669 184.977C31.9769 182.067 34.9169 178.967 35.7269 175.657C37.5269 168.387 26.4169 160.747 23.1769 154.977C19.3669 148.207 18.8269 140.217 24.0169 134.026C24.6769 133.247 25.3959 132.526 26.1769 131.897C21.2569 122.977 21.0269 111.757 27.5069 102.957C31.7669 97.1574 38.2669 93.0974 45.3669 91.8674C49.7069 91.1174 54.9269 91.3974 59.6969 92.7374C85.8159 68.4874 115.617 48.2274 148.066 33.5074ZM47.7664 336.937C54.7374 330.787 62.4375 327.567 71.9375 328.377C81.4874 329.196 92.9874 333.147 98.5964 341.337C103.027 347.807 93.9974 357.297 87.4974 352.437C81.5774 348.007 77.6264 343.007 70.2774 340.627C63.6764 338.497 55.5064 337.127 48.5964 338.347C47.8364 338.477 47.0774 337.537 47.7664 336.937Z" fill="#090426"/>
</g>
<g id="Smile 1">
<g id="face/Smile">
<path id="&#240;&#159;&#150;&#141; Ink_2" fill-rule="evenodd" clip-rule="evenodd" d="M267.587 402.927C260.864 400.184 254.866 395.61 250.481 389.766C248.957 387.735 248.561 385.59 248.881 383.628C249.241 381.421 250.546 379.422 252.326 378.081C254.112 376.735 256.345 376.072 258.504 376.41C260.381 376.704 262.248 377.731 263.727 379.862L264.035 380.288C266.642 383.815 270.04 386.709 273.91 388.574C277.641 390.372 281.814 391.211 286.132 390.723C294.356 389.794 300.024 385.346 306.049 379.307C306.796 378.544 307.543 377.758 308.294 376.959C308.768 376.234 309.426 375.769 310.157 375.524C310.968 375.253 311.886 375.269 312.726 375.562C313.537 375.845 314.262 376.381 314.748 377.095C315.209 377.773 315.471 378.61 315.386 379.574C314.835 385.833 311.562 391.419 306.914 395.805C301.752 400.677 294.909 404.047 288.466 405.229C281.368 406.531 274.136 405.598 267.587 402.927ZM291.814 306.367C299.366 310.957 310.872 321.66 302.748 333.04C293.186 343.073 279.419 331.569 272.634 326.366C266.343 322.334 259.275 332.704 265.112 337.413C314.136 373.708 334.031 307.567 295.634 300.97C291.406 300.243 289.836 304.947 291.814 306.367ZM203.963 264.146C204.798 253.79 220.57 251.438 222.139 261.686C223.544 270.866 221.89 279.299 217.755 287.564C213.804 295.46 203.874 291.777 203.123 284.587C202.116 274.949 203.444 270.589 203.963 264.146ZM324.027 259.561C326.226 256.681 329.401 254.715 333.205 255.826C345.09 259.299 341.587 276.172 337.413 284.385C335.145 288.845 327.814 289.976 324.501 286.049C319.101 279.645 316.515 266.856 323.38 260.548C323.566 260.222 323.773 259.893 324.027 259.561ZM217.588 218.83L219.465 218.502C225.273 217.497 232.494 216.532 236.603 221.201C238.782 223.677 239.532 228.279 236.603 230.649C231.451 234.819 225.755 233.203 219.581 233.556C214.493 233.848 209.603 234.69 204.702 236.091C193.95 239.164 185.189 244.774 176.006 250.934C174.801 251.742 173.571 250.201 174.146 249.074C179.447 238.691 189.72 230.162 200.01 224.963C205.502 222.188 211.512 219.886 217.588 218.83ZM313.193 214.179L314.63 214.473C330.267 217.742 350.583 224.271 357.988 239.631C358.271 241.803 357.973 242.268 357.73 242.572L357.649 242.673C357.45 242.933 357.29 243.291 356.349 243.587C356.088 243.525 355.824 243.459 355.557 243.389C352.163 242.499 349.477 241.274 346.877 240.002L344.058 238.613C340.788 237.01 337.488 235.465 333.992 234.324C326.53 231.89 318.854 230.175 311.06 229.26C309.37 229.061 307.744 228.491 306.46 227.514C305.242 226.587 304.311 225.302 303.887 223.595C303.337 221.386 303.495 219.714 304.681 217.721C305.572 216.224 306.847 215.187 308.311 214.591C309.804 213.984 311.504 213.841 313.193 214.179Z" fill="#090426"/>
</g>
</g>
</g>
</g>
<defs>
<clipPath id="clip0">
<rect width="473" height="567" fill="white"/>
</clipPath>
</defs>
</svg>
