<svg width="473" height="567" viewBox="0 0 473 567" fill="none" xmlns="http://www.w3.org/2000/svg">
<g id="malehead1" clip-path="url(#clip0)">
<g id="head/mono/Pomp">
<path id="&#240;&#159;&#150;&#141; Ink" fill-rule="evenodd" clip-rule="evenodd" d="M169.067 33.5076C230.397 5.6876 299.958 -4.8624 366.858 2.0576C399.878 5.4678 432.464 12.7842 463.475 24.6688L466.193 25.7193C473.848 28.6656 482.1 31.5902 487.918 37.5876C494.689 44.5576 496.588 55.0976 491.748 63.7076C487.988 70.3976 481.228 75.1966 474.018 77.7576C476.558 79.8376 478.968 82.1576 481.228 84.7476C485.038 89.0876 485.328 95.2766 481.228 99.5576C473.328 107.808 463.078 113.777 452.038 116.638C453.278 122.628 452.608 129.258 449.948 135.228C442.315 152.365 420.813 154.407 404.267 153.389L403.768 153.358L402.848 163.888C402.358 169.498 398.998 173.848 393.298 174.708C393.098 174.738 392.897 174.758 392.698 174.777C401.718 207.398 407.168 241.027 412.198 274.458C414.826 291.909 417.178 309.4 419.43 326.903L420.178 332.738C422.578 351.608 425.578 370.668 426.618 389.678C427.548 406.928 424.258 423.398 413.628 437.318C404.088 449.798 391.078 459.148 377.088 466.088C345.478 481.777 312.208 493.458 277.248 498.878L274.916 499.236C261.421 501.296 247.517 503.032 234.168 499.298C222.439 496.018 210.138 487.558 212.788 473.968C213.678 469.378 220.098 469.178 222.298 472.728L222.805 473.541C225.443 477.727 228.335 481.617 232.939 483.777C238.328 486.318 244.578 487.027 250.468 487.098C266.918 487.288 284.048 483.188 299.888 479.078C329.468 471.399 359.848 458.878 384.078 439.908C394.388 431.848 402.668 421.768 405.588 408.798C409.198 392.808 405.878 375.328 404.238 359.258C400.863 326.098 396.846 293 392.608 259.939L391.758 253.328C388.189 225.688 384.439 198.038 382.658 170.238C381.918 169.228 381.418 168.078 381.218 166.818L380.939 165.008C380.698 163.458 380.658 162.038 380.828 160.728C380.838 155.708 380.978 150.718 381.268 145.697C381.317 144.798 381.358 143.898 381.388 143.008C376.168 144.158 370.908 145.088 365.628 145.878C328.508 151.468 290.808 152.868 253.388 150.088C234.718 148.697 216.189 146.308 197.718 143.318C188.317 141.798 178.948 140.118 169.608 138.238C162.858 136.888 156.248 135.058 149.608 133.338C142.758 143.308 139.058 155.578 139.778 167.628C140.588 181.378 149.748 193.848 147.178 207.898C144.766 221.047 133.5 225.124 122.378 228.38L117.648 229.747C114.009 230.809 111.366 231.834 110.708 236.208C109.578 243.718 110.968 252.168 111.258 259.718C111.608 268.648 112.067 277.578 112.278 286.508C112.388 291.128 112.567 295.768 112.558 300.388C112.548 303.668 112.058 305.908 110.788 308.027C111.768 309.258 112.647 310.588 113.428 311.998C113.678 312.458 113.058 312.947 112.689 312.568C111.698 311.538 110.647 310.608 109.538 309.777C108.978 310.468 108.328 311.168 107.567 311.918L107.508 311.838C105.128 314.208 101.348 314.438 98.3966 311.918L97.6222 311.247C95.4623 309.353 93.9782 307.777 93.3776 304.648C93.3476 304.488 93.3166 304.328 93.2976 304.168C87.8076 303.978 82.2276 305.277 77.2876 308.008C69.4576 312.338 63.9476 318.508 60.6886 326.128C61.9876 327.648 63.5076 329.008 65.2776 330.148C65.5276 330.318 65.3076 330.688 65.0376 330.558C63.2276 329.708 61.6076 328.658 60.1576 327.428C58.9876 330.428 58.1676 333.648 57.6676 337.058C55.9076 349.098 59.0476 363.808 69.9276 370.668C74.6376 373.638 80.0176 375.248 85.5976 375.268C88.3166 375.277 90.6676 374.818 93.3076 374.168C95.0976 373.728 96.8776 373.088 98.7476 373.088C100.348 373.088 101.828 373.488 103.198 374.288L102.818 374.321C101.894 374.408 102.072 374.447 103.358 374.447C107.358 374.618 109.647 378.678 107.808 382.208L107.566 382.753C107.515 382.863 107.472 382.954 107.439 383.027L107.293 383.963C107.279 384.052 107.264 384.144 107.248 384.238L107.192 384.427C107.182 384.458 107.171 384.488 107.158 384.518L113.157 393.666C120.512 404.857 128.031 416.005 136.588 426.228C142.588 433.398 148.948 440.428 155.668 446.938C161.708 452.788 168.948 455.608 175.788 460.208C179.439 462.648 180.508 467.758 177.189 471.048C167.448 480.718 153.658 473.038 145.668 465.178C138.108 457.728 131.578 448.768 125.948 439.798C115.958 423.848 108.008 406.888 104.528 388.478C103.078 389.808 101.228 390.638 99.3576 391.288C95.6076 392.588 91.4776 393.128 87.5176 393.268C79.9276 393.518 72.3276 391.678 65.4976 388.418C37.7076 375.168 33.6276 335.488 50.6176 312.088C48.3266 305.444 47.0471 298.235 45.657 292.088L45.0246 289.341C37.9999 258.648 33.2818 226.333 45.7376 196.258C47.3376 192.378 49.1376 188.598 51.2676 184.978C52.9776 182.068 55.9176 178.968 56.7276 175.658C58.5276 168.388 47.4176 160.748 44.1776 154.978C40.3676 148.208 39.8276 140.218 45.0176 134.027C45.6776 133.248 46.3966 132.527 47.1776 131.898C42.2576 122.978 42.0276 111.758 48.5076 102.958C52.7676 97.1576 59.2676 93.0976 66.3676 91.8676C70.7076 91.1176 75.9276 91.3976 80.6976 92.7376C106.817 68.4876 136.618 48.2276 169.067 33.5076ZM68.7671 336.938C75.7381 330.788 83.4381 327.568 92.9381 328.378C102.488 329.197 113.988 333.148 119.597 341.338C124.028 347.808 114.998 357.298 108.498 352.438C102.578 348.008 98.6271 343.008 91.2781 340.628C84.6771 338.498 76.5071 337.128 69.5971 338.348C68.8371 338.478 68.0781 337.538 68.7671 336.938Z" fill="black"/>
</g>
<g id="Smile 1">
<g id="face/Smile">
<path id="&#240;&#159;&#150;&#141; Ink_2" fill-rule="evenodd" clip-rule="evenodd" d="M267.587 402.927C260.864 400.184 254.866 395.61 250.481 389.766C248.957 387.735 248.561 385.59 248.881 383.628C249.241 381.421 250.546 379.422 252.326 378.081C254.112 376.735 256.345 376.072 258.504 376.41C260.381 376.704 262.248 377.731 263.727 379.862L264.035 380.288C266.642 383.815 270.04 386.709 273.91 388.574C277.641 390.372 281.814 391.211 286.132 390.723C294.356 389.794 300.024 385.346 306.049 379.307C306.796 378.544 307.543 377.758 308.294 376.959C308.768 376.234 309.426 375.769 310.157 375.524C310.968 375.253 311.886 375.269 312.726 375.562C313.537 375.845 314.262 376.381 314.747 377.095C315.209 377.773 315.471 378.61 315.386 379.574C314.835 385.833 311.562 391.419 306.914 395.805C301.752 400.677 294.908 404.047 288.466 405.229C281.368 406.531 274.136 405.598 267.587 402.927ZM291.814 306.367C299.366 310.957 310.872 321.66 302.748 333.04C293.186 343.073 279.418 331.569 272.634 326.366C266.343 322.334 259.275 332.704 265.112 337.413C314.136 373.708 334.031 307.567 295.634 300.97C291.406 300.243 289.836 304.947 291.814 306.367ZM203.963 264.146C204.798 253.79 220.57 251.438 222.139 261.686C223.544 270.866 221.89 279.299 217.755 287.564C213.804 295.46 203.874 291.777 203.123 284.587C202.116 274.949 203.444 270.589 203.963 264.146ZM324.027 259.561C326.226 256.681 329.401 254.715 333.205 255.826C345.09 259.299 341.587 276.172 337.413 284.385C335.145 288.845 327.814 289.976 324.501 286.049C319.101 279.645 316.515 266.856 323.38 260.548C323.566 260.222 323.773 259.893 324.027 259.561ZM217.588 218.83L219.465 218.502C225.273 217.497 232.494 216.532 236.603 221.201C238.782 223.677 239.532 228.279 236.603 230.649C231.451 234.819 225.755 233.203 219.581 233.556C214.493 233.848 209.603 234.69 204.702 236.091C193.95 239.164 185.189 244.774 176.006 250.934C174.801 251.742 173.571 250.201 174.146 249.074C179.447 238.691 189.72 230.162 200.01 224.963C205.502 222.188 211.512 219.886 217.588 218.83ZM313.193 214.179L314.63 214.473C330.267 217.742 350.583 224.271 357.988 239.631C358.271 241.803 357.972 242.268 357.73 242.572L357.649 242.673C357.45 242.933 357.29 243.291 356.349 243.587C356.088 243.525 355.824 243.459 355.557 243.389C352.163 242.499 349.477 241.274 346.877 240.002L344.058 238.613C340.788 237.01 337.488 235.465 333.992 234.324C326.53 231.89 318.854 230.175 311.06 229.26C309.37 229.061 307.744 228.491 306.46 227.514C305.242 226.587 304.311 225.302 303.887 223.595C303.337 221.386 303.495 219.714 304.68 217.721C305.572 216.224 306.847 215.187 308.311 214.591C309.804 213.984 311.503 213.841 313.193 214.179Z" fill="black"/>
</g>
</g>
</g>
<defs>
<clipPath id="clip0">
<rect width="473" height="567" fill="white"/>
</clipPath>
</defs>
</svg>
