<svg width="312" height="260" viewBox="0 0 312 260" fill="none" xmlns="http://www.w3.org/2000/svg">
<g id="Group">
<g id="Group_2">
<path id="Vector" d="M155.771 0.331055C69.74 0.331055 0 70.0711 0 156.102C0 193.59 13.25 227.985 35.314 254.863C38.718 227.607 65.941 204.555 104.114 193.638C118.06 206.632 136.074 214.516 155.77 214.516C175.003 214.516 192.664 207.029 206.468 194.58C244.971 206.451 271.609 230.85 272.485 259.21C296.769 231.738 311.541 195.655 311.541 156.102C311.541 70.0711 241.801 0.331055 155.771 0.331055ZM155.771 196.069C145.827 196.069 136.457 193.337 128.137 188.605C108.087 177.196 94.282 153.849 94.282 126.894C94.282 88.751 121.865 57.7181 155.771 57.7181C189.68 57.7181 217.26 88.751 217.26 126.894C217.26 154.263 203.023 177.898 182.474 189.109C174.379 193.523 165.346 196.069 155.771 196.069Z" fill="#090426"/>
</g>
</g>
</svg>
